<svg xmlns="http://www.w3.org/2000/svg" fill="none" viewBox="0 0 128 128">
    <defs>
        <linearGradient id="synthGradient" x1="0%" y1="0%" x2="100%" y2="100%">
            <stop offset="0%" style="stop-color:#ffd700;stop-opacity:1" />
            <stop offset="50%" style="stop-color:#ff6b6b;stop-opacity:1" />
            <stop offset="100%" style="stop-color:#4a90e2;stop-opacity:1" />
        </linearGradient>
    </defs>

    <!-- Background circle -->
    <circle cx="64" cy="64" r="60" fill="#2a2a2a" stroke="#ffd700" stroke-width="2"/>

    <!-- Synthesizer keys -->
    <rect x="20" y="45" width="8" height="25" fill="url(#synthGradient)" rx="2"/>
    <rect x="32" y="45" width="8" height="25" fill="url(#synthGradient)" rx="2"/>
    <rect x="44" y="45" width="8" height="25" fill="url(#synthGradient)" rx="2"/>
    <rect x="56" y="45" width="8" height="25" fill="url(#synthGradient)" rx="2"/>
    <rect x="68" y="45" width="8" height="25" fill="url(#synthGradient)" rx="2"/>
    <rect x="80" y="45" width="8" height="25" fill="url(#synthGradient)" rx="2"/>
    <rect x="92" y="45" width="8" height="25" fill="url(#synthGradient)" rx="2"/>

    <!-- Sound wave -->
    <path d="M 15 80 Q 25 70, 35 80 Q 45 90, 55 80 Q 65 70, 75 80 Q 85 90, 95 80 Q 105 70, 115 80"
          stroke="#ffd700" stroke-width="3" fill="none" stroke-linecap="round"/>

    <!-- Frequency bars -->
    <rect x="25" y="95" width="3" height="15" fill="#ff6b6b"/>
    <rect x="35" y="90" width="3" height="20" fill="#ff6b6b"/>
    <rect x="45" y="85" width="3" height="25" fill="#ff6b6b"/>
    <rect x="55" y="80" width="3" height="30" fill="#ff6b6b"/>
    <rect x="65" y="85" width="3" height="25" fill="#ff6b6b"/>
    <rect x="75" y="90" width="3" height="20" fill="#ff6b6b"/>
    <rect x="85" y="95" width="3" height="15" fill="#ff6b6b"/>

    <!-- Center dot -->
    <circle cx="64" cy="64" r="3" fill="#ffd700"/>
</svg>
